<?xml version="1.0" encoding="UTF-8"?>
<svg width="50px" height="50px" viewBox="0 0 50 50" version="1.1" xmlns="http://www.w3.org/2000/svg" xmlns:xlink="http://www.w3.org/1999/xlink">
    <!-- Generator: Sketch 48.1 (47250) - http://www.bohemiancoding.com/sketch -->
    <title>icon_shangchuan</title>
    <desc>Created with Sketch.</desc>
    <defs></defs>
    <g id="原创保护_原创保护申请_个人作品" stroke="none" stroke-width="1" fill="none" fill-rule="evenodd" transform="translate(-890.000000, -362.000000)">
        <g id="Group-8" transform="translate(890.000000, 362.000000)" fill="#CC2D35" fill-rule="nonzero">
            <g id="上传-2" transform="translate(0.000000, 6.000000)">
                <path d="M37.1987889,32.7951963 C36.0555523,32.7951963 35.1303057,31.8776801 35.1303057,30.7439953 C35.1303057,29.6103105 36.0555523,28.6927944 37.1987889,28.6927944 C41.7572029,28.6927944 45.4678777,25.0131224 45.4678777,20.4927944 C45.4678777,16.188635 42.0720774,12.6002343 37.7413419,12.3216169 L36.5205977,12.2495606 L36.0022658,11.1591095 C33.9580037,6.86936145 29.5594492,4.09759813 24.7975779,4.09759813 C20.0357066,4.09759813 15.6371521,6.86936145 13.5928899,11.1591095 L13.0745581,12.2495606 L11.8586581,12.3264206 C7.52307843,12.6050381 4.13212228,16.1934388 4.13212228,20.4975981 C4.13212228,25.0179262 7.84279715,28.6975981 12.4012111,28.6975981 C13.5444477,28.6975981 14.4696943,29.6151142 14.4696943,30.7487991 C14.4696943,31.8824839 13.5444477,32.8 12.4012111,32.8 C5.56116808,32.8 0,27.2852958 0,20.5024019 C0,14.444874 4.48090634,9.33368483 10.4005469,8.37773872 C13.3070808,3.25213825 18.8343393,0 24.7975779,0 C30.7608165,0 36.288075,3.25213825 39.1994531,8.36813122 C45.1190937,9.32407733 49.6,14.4400703 49.6,20.4975981 C49.6,27.2756883 44.0388319,32.7951963 37.1987889,32.7951963 Z" id="Shape"></path>
                <path d="M31.4972316,25.9987813 C30.9607734,25.9987813 30.4243152,25.7940473 30.0108979,25.3894539 L25.1975392,20.6220764 L20.3841805,25.3894539 C19.5671891,26.2035154 18.2334261,26.2035154 17.4164347,25.3894539 C16.5945218,24.5753925 16.5945218,23.2592454 17.4164347,22.4500586 L23.7161271,16.2105461 C24.5331185,15.3964846 25.8668815,15.3964846 26.6838729,16.2105461 L32.9835653,22.4500586 C33.8054782,23.26412 33.8054782,24.5802672 32.9835653,25.3894539 C32.5701479,25.798922 32.0336898,25.9987813 31.4972316,25.9987813 Z" id="Shape"></path>
                <path d="M25.2,34 C24.0946136,34 23.2,33.0847917 23.2,31.9539583 L23.2,17.6460417 C23.2,16.5152083 24.0946136,15.6 25.2,15.6 C26.3053864,15.6 27.2,16.5152083 27.2,17.6460417 L27.2,31.95875 C27.2,33.0847917 26.3053864,34 25.2,34 Z" id="Shape"></path>
            </g>
        </g>
    </g>
</svg>